<svg xmlns="http://www.w3.org/2000/svg" viewBox="0 0 501.0 120.0" width="501.0" height="120.0" role="img" aria-label="Hayden Leung — CS @ Columbia '28  ·  AI/ML founder  ·  researcher">
  <path d="M6.85 60.0V23.5H13.100000000000001V38.3H22.900000000000002V23.5H29.150000000000002V60.0H22.900000000000002V43.95H13.100000000000001V60.0Z M44.95 60.5Q40.75 60.5 38.325 58.125Q35.9 55.75 35.9 51.9Q35.9 47.9 38.65 45.525Q41.4 43.15 46.2 43.15H52.900000000000006V41.2Q52.900000000000006 37.05 48.05 37.05Q45.85 37.05 44.55 37.9Q43.25 38.75 43.1 40.3H37.1Q37.3 36.599999999999994 40.224999999999994 34.3Q43.15 32.0 48.1 32.0Q53.35 32.0 56.25 34.45Q59.150000000000006 36.9 59.150000000000006 41.349999999999994V60.0H53.05V54.85Q52.7 57.5 50.55 59.0Q48.4 60.5 44.95 60.5ZM46.95 55.4Q49.7 55.4 51.300000000000004 54.05Q52.900000000000006 52.7 52.900000000000006 50.45V47.2H46.5Q44.45 47.2 43.25 48.35Q42.05 49.5 42.05 51.3Q42.05 53.15 43.325 54.275Q44.6 55.4 46.95 55.4Z M71.25 69.0 75.15 58.5 64.8 32.5H71.4L76.7 46.55Q77.15 47.8 77.6 49.275Q78.05 50.75 78.25 52.0Q78.4 50.75 78.825 49.275Q79.25 47.8 79.7 46.55L84.6 32.5H91.2L77.8 69.0Z M105.5 60.5Q101.5 60.5 99.025 57.65Q96.55 54.8 96.55 50.0V42.55Q96.55 37.7 99.0 34.85Q101.45 32.0 105.5 32.0Q108.35 32.0 110.32499999999999 33.45Q112.3 34.9 113.1 37.5L112.9 31.2V23.5H119.15V60.0H113.05V55.0Q112.3 57.6 110.35 59.05Q108.4 60.5 105.5 60.5ZM107.85 55.1Q110.25 55.1 111.575 53.650000000000006Q112.9 52.2 112.9 49.55V42.95Q112.9 40.3 111.575 38.849999999999994Q110.25 37.4 107.85 37.4Q105.45 37.4 104.125 38.7Q102.8 40.0 102.8 42.7V49.8Q102.8 52.5 104.125 53.8Q105.45 55.1 107.85 55.1Z M138.05 60.5Q134.55 60.5 131.95 59.15Q129.35 57.8 127.925 55.325Q126.5 52.85 126.5 49.5V43.0Q126.5 39.65 127.925 37.175Q129.35 34.7 131.95 33.35Q134.55 32.0 138.05 32.0Q141.5 32.0 144.075 33.35Q146.65 34.7 148.075 37.125Q149.5 39.55 149.5 42.8V47.8H132.5V49.7Q132.5 52.5 133.95 53.925Q135.4 55.35 138.05 55.35Q140.0 55.35 141.375 54.675Q142.75 54.0 143.0 52.7H149.2Q148.55 56.25 145.5 58.375Q142.45 60.5 138.05 60.5ZM132.5 42.8V43.75L143.5 43.7V42.75Q143.5 39.9 142.1 38.349999999999994Q140.7 36.8 138.05 36.8Q135.3 36.8 133.9 38.375Q132.5 39.95 132.5 42.8Z M156.85 60.0V32.5H162.95V37.65Q163.45 35.05 165.39999999999998 33.525Q167.35 32.0 170.35 32.0Q174.4 32.0 176.825 34.7Q179.25 37.4 179.25 41.95V60.0H173.0V42.7Q173.0 40.15 171.675 38.775Q170.35 37.4 168.1 37.4Q165.75 37.4 164.425 38.8Q163.1 40.2 163.1 42.8V60.0Z M219.05 60.0V23.5H225.3V54.35H240.8V60.0Z M258.05 60.5Q254.55 60.5 251.95 59.15Q249.35 57.8 247.925 55.325Q246.5 52.85 246.5 49.5V43.0Q246.5 39.65 247.925 37.175Q249.35 34.7 251.95 33.35Q254.55 32.0 258.05 32.0Q261.5 32.0 264.075 33.35Q266.65 34.7 268.075 37.125Q269.5 39.55 269.5 42.8V47.8H252.5V49.7Q252.5 52.5 253.95 53.925Q255.4 55.35 258.05 55.35Q260.0 55.35 261.375 54.675Q262.75 54.0 263.0 52.7H269.2Q268.55 56.25 265.5 58.375Q262.45 60.5 258.05 60.5ZM252.5 42.8V43.75L263.5 43.7V42.75Q263.5 39.9 262.1 38.349999999999994Q260.7 36.8 258.05 36.8Q255.3 36.8 253.9 38.375Q252.5 39.95 252.5 42.8Z M288.0 60.5Q282.75 60.5 279.75 57.575Q276.75 54.65 276.75 49.6V32.5H283.0V49.55Q283.0 52.15 284.3 53.599999999999994Q285.6 55.05 288.0 55.05Q290.35 55.05 291.675 53.599999999999994Q293.0 52.15 293.0 49.55V32.5H299.25V49.6Q299.25 54.65 296.2 57.575Q293.15 60.5 288.0 60.5Z M306.85 60.0V32.5H312.95V37.65Q313.45 35.05 315.4 33.525Q317.35 32.0 320.35 32.0Q324.4 32.0 326.825 34.7Q329.25 37.4 329.25 41.95V60.0H323.0V42.7Q323.0 40.15 321.675 38.775Q320.35 37.4 318.1 37.4Q315.75 37.4 314.425 38.8Q313.1 40.2 313.1 42.8V60.0Z M340.6 69.0V63.8H348.35Q350.55 63.8 351.75 62.625Q352.95 61.45 352.95 59.45V57.8L353.05 53.5Q352.2 55.8 350.325 57.075Q348.45 58.35 345.75 58.35Q341.55 58.35 339.07500000000005 55.525000000000006Q336.6 52.7 336.6 47.85V42.5Q336.6 37.7 339.07500000000005 34.85Q341.55 32.0 345.75 32.0Q348.45 32.0 350.325 33.275Q352.2 34.55 353.05 36.9V32.5H359.15V59.6Q359.15 63.95 356.275 66.475Q353.4 69.0 348.45 69.0ZM347.85 53.0Q350.25 53.0 351.575 51.575Q352.9 50.15 352.9 47.6V42.8Q352.9 40.25 351.575 38.825Q350.25 37.4 347.85 37.4Q345.45 37.4 344.15 38.775Q342.85 40.15 342.85 42.599999999999994V47.8Q342.85 50.25 344.15 51.625Q345.45 53.0 347.85 53.0Z" fill="#1f2328"/>
  <rect x="3.0" y="72.0" width="360.0" height="3" rx="1.5" fill="#3b5bdb"/>
  <path d="M8.082 104.165Q6.432 104.165 5.475 103.241Q4.518 102.317 4.518 100.7V95.255Q4.518 93.638 5.475 92.714Q6.432 91.78999999999999 8.082 91.78999999999999Q9.699000000000002 91.78999999999999 10.656 92.72225Q11.613 93.6545 11.613 95.255H10.128Q10.128 94.232 9.591750000000001 93.67925Q9.0555 93.1265 8.082 93.1265Q7.1085 93.1265 6.55575 93.67925Q6.003 94.232 6.003 95.255V100.7Q6.003 101.723 6.55575 102.27575Q7.1085 102.8285 8.082 102.8285Q9.0555 102.8285 9.591750000000001 102.27575Q10.128 101.723 10.128 100.7H11.613Q11.613 102.3005 10.656 103.23275000000001Q9.699000000000002 104.165 8.082 104.165Z M17.916 104.165Q16.167 104.165 15.127500000000001 103.241Q14.088000000000001 102.317 14.088000000000001 100.7H15.573Q15.573 101.7065 16.2165 102.27575Q16.86 102.845 17.916 102.845Q18.939 102.845 19.549500000000002 102.251Q20.16 101.657 20.16 100.7Q20.16 99.974 19.77225 99.43775Q19.384500000000003 98.9015 18.6585 98.7035L16.827 98.19200000000001Q15.688500000000001 97.862 15.036750000000001 97.01225Q14.385 96.1625 14.385 95.0075Q14.385 94.0505 14.814 93.3245Q15.243 92.5985 16.0185 92.19425Q16.794 91.78999999999999 17.8005 91.78999999999999Q18.823500000000003 91.78999999999999 19.60725 92.19425Q20.391000000000002 92.5985 20.8365 93.31625Q21.282 94.03399999999999 21.282 94.9745H19.797Q19.797 94.1495 19.236 93.62975Q18.675 93.11 17.8005 93.11Q16.926000000000002 93.11 16.381500000000003 93.62975Q15.837 94.1495 15.837 94.9745Q15.837 95.6345 16.19175 96.10475Q16.5465 96.575 17.19 96.7565L19.071 97.2845Q20.2755 97.61449999999999 20.94375 98.53025Q21.612000000000002 99.446 21.612000000000002 100.7Q21.612000000000002 102.284 20.6055 103.2245Q19.599 104.165 17.916 104.165Z M38.0625 106.97Q36.660000000000004 106.97 35.62050000000001 106.38425000000001Q34.581 105.7985 34.011750000000006 104.71775Q33.4425 103.637 33.4425 102.185V96.575Q33.4425 94.3475 34.6305 93.06875Q35.8185 91.78999999999999 37.8975 91.78999999999999Q39.7785 91.78999999999999 40.85925 92.87074999999999Q41.940000000000005 93.9515 41.940000000000005 95.8325V100.304Q41.940000000000005 101.591 41.230500000000006 102.34174999999999Q40.521 103.0925 39.300000000000004 103.0925Q38.0955 103.0925 37.377750000000006 102.3665Q36.660000000000004 101.6405 36.660000000000004 100.469V98.555Q36.660000000000004 97.334 37.237500000000004 96.66575Q37.815000000000005 95.9975 38.871 95.9975Q39.5475 95.9975 39.993 96.2615Q40.438500000000005 96.5255 40.587 96.9875H40.620000000000005V95.8325Q40.620000000000005 94.43 39.91875 93.6875Q39.2175 92.945 37.8975 92.945Q36.4125 92.945 35.587500000000006 93.90199999999999Q34.7625 94.859 34.7625 96.575V102.185Q34.7625 103.835 35.645250000000004 104.78375Q36.528000000000006 105.7325 38.0625 105.7325H39.877500000000005V106.97ZM39.300000000000004 101.987Q39.92700000000001 101.987 40.273500000000006 101.58275Q40.620000000000005 101.1785 40.620000000000005 100.469V98.5385Q40.620000000000005 97.8125 40.273500000000006 97.42475Q39.92700000000001 97.037 39.300000000000004 97.037Q38.673 97.037 38.3265 97.43299999999999Q37.980000000000004 97.829 37.980000000000004 98.555V100.469Q37.980000000000004 101.1785 38.3265 101.58275Q38.673 101.987 39.300000000000004 101.987Z M57.582 104.165Q55.932 104.165 54.975 103.241Q54.018 102.317 54.018 100.7V95.255Q54.018 93.638 54.975 92.714Q55.932 91.78999999999999 57.582 91.78999999999999Q59.199 91.78999999999999 60.156 92.72225Q61.113 93.6545 61.113 95.255H59.628Q59.628 94.232 59.091750000000005 93.67925Q58.5555 93.1265 57.582 93.1265Q56.6085 93.1265 56.05575 93.67925Q55.503 94.232 55.503 95.255V100.7Q55.503 101.723 56.05575 102.27575Q56.6085 102.8285 57.582 102.8285Q58.5555 102.8285 59.091750000000005 102.27575Q59.628 101.723 59.628 100.7H61.113Q61.113 102.3005 60.156 103.23275000000001Q59.199 104.165 57.582 104.165Z M67.35 104.132Q65.7165 104.132 64.75125 103.17500000000001Q63.786 102.218 63.786 100.502V98.423Q63.786 96.6905 64.743 95.74175Q65.7 94.793 67.35 94.793Q69.0 94.793 69.957 95.74175Q70.914 96.6905 70.914 98.423V100.502Q70.914 102.218 69.94874999999999 103.17500000000001Q68.98349999999999 104.132 67.35 104.132ZM67.35 102.812Q68.3235 102.812 68.87625 102.2675Q69.429 101.723 69.429 100.667V98.258Q69.429 97.202 68.87625 96.6575Q68.3235 96.113 67.35 96.113Q66.393 96.113 65.832 96.6575Q65.271 97.202 65.271 98.258V100.667Q65.271 101.723 65.832 102.2675Q66.393 102.812 67.35 102.812Z M78.57 104.0Q77.3655 104.0 76.64775 103.29875Q75.92999999999999 102.5975 75.92999999999999 101.4425V93.30799999999999H72.795V91.955H77.41499999999999V101.4425Q77.41499999999999 102.0035 77.7285 102.32525000000001Q78.042 102.647 78.57 102.647H81.375V104.0Z M87.1335 104.165Q85.566 104.165 84.6255 103.23275000000001Q83.685 102.3005 83.685 100.7V94.925H85.17V100.7Q85.17 101.69 85.69800000000001 102.27575Q86.226 102.8615 87.1335 102.8615Q88.0575 102.8615 88.59375 102.27575Q89.13000000000001 101.69 89.13000000000001 100.7V94.925H90.61500000000001V100.7Q90.61500000000001 102.3005 89.65800000000002 103.23275000000001Q88.70100000000001 104.165 87.1335 104.165Z M93.09 104.0V94.925H94.37700000000001V96.1295H94.41000000000001Q94.4925 95.519 94.89675 95.1395Q95.301 94.76 95.92800000000001 94.76Q96.522 94.76 96.93450000000001 95.10650000000001Q97.34700000000001 95.453 97.52850000000001 96.047H97.54500000000002Q97.66050000000001 95.453 98.06475 95.10650000000001Q98.46900000000001 94.76 99.096 94.76Q99.97050000000002 94.76 100.49025 95.41175000000001Q101.01 96.0635 101.01 97.103V104.0H99.62400000000001V97.0865Q99.62400000000001 96.542 99.36000000000001 96.22025Q99.096 95.8985 98.63400000000001 95.8985Q98.1885 95.8985 97.92450000000001 96.21199999999999Q97.66050000000001 96.5255 97.66050000000001 97.07V104.0H96.43950000000001V97.0865Q96.43950000000001 96.542 96.1755 96.22025Q95.9115 95.8985 95.46600000000001 95.8985Q95.004 95.8985 94.74000000000001 96.21199999999999Q94.47600000000001 96.5255 94.47600000000001 97.07V104.0Z M107.47800000000001 104.165Q106.45500000000001 104.165 105.79500000000002 103.66175000000001Q105.13500000000002 103.1585 105.01950000000001 102.2675H105.00300000000001V104.0H103.51800000000001V91.955H105.00300000000001V94.595L104.97000000000001 96.6575H104.98650000000002Q105.11850000000001 95.783 105.78675000000001 95.2715Q106.45500000000001 94.76 107.47800000000001 94.76Q108.84750000000001 94.76 109.656 95.6675Q110.46450000000002 96.575 110.46450000000002 98.1425V100.799Q110.46450000000002 102.35 109.656 103.2575Q108.84750000000001 104.165 107.47800000000001 104.165ZM106.98300000000002 102.878Q107.92350000000002 102.878 108.45150000000001 102.38300000000001Q108.97950000000002 101.888 108.97950000000002 100.7825V98.1425Q108.97950000000002 97.0205 108.45150000000001 96.53375Q107.92350000000002 96.047 106.98300000000002 96.047Q106.07550000000002 96.047 105.53925000000001 96.6245Q105.00300000000001 97.202 105.00300000000001 98.225V100.7Q105.00300000000001 101.723 105.53925000000001 102.3005Q106.07550000000002 102.878 106.98300000000002 102.878Z M113.30250000000002 104.0V102.647H116.52000000000002V96.278H113.63250000000002V94.925H118.00500000000002V102.647H121.05750000000002V104.0ZM117.09750000000001 93.2915Q116.55300000000001 93.2915 116.23950000000002 93.011Q115.92600000000002 92.7305 115.92600000000002 92.252Q115.92600000000002 91.757 116.23950000000002 91.46825000000001Q116.55300000000001 91.1795 117.09750000000001 91.1795Q117.64200000000001 91.1795 117.95550000000001 91.46825000000001Q118.26900000000002 91.757 118.26900000000002 92.252Q118.26900000000002 92.7305 117.95550000000001 93.011Q117.64200000000001 93.2915 117.09750000000001 93.2915Z M125.95800000000003 104.165Q124.55550000000002 104.165 123.73050000000003 103.38125Q122.90550000000003 102.5975 122.90550000000003 101.327Q122.90550000000003 100.4855 123.28500000000003 99.85849999999999Q123.66450000000003 99.2315 124.34100000000004 98.87675Q125.01750000000003 98.522 125.89200000000002 98.522H128.69700000000003V97.8125Q128.69700000000003 96.047 126.76650000000002 96.047Q125.90850000000003 96.047 125.38050000000003 96.3605Q124.85250000000002 96.674 124.81950000000002 97.235H123.33450000000002Q123.41700000000003 96.1625 124.33275000000003 95.46125Q125.24850000000002 94.76 126.76650000000002 94.76Q128.4165 94.76 129.29925000000003 95.55199999999999Q130.18200000000002 96.344 130.18200000000002 97.763V104.0H128.71350000000004V102.35H128.68050000000002Q128.54850000000002 103.1915 127.83900000000003 103.67825Q127.12950000000002 104.165 125.95800000000003 104.165ZM126.32100000000003 102.911Q127.41000000000003 102.911 128.05350000000004 102.38300000000001Q128.69700000000003 101.855 128.69700000000003 100.9475V99.67699999999999H126.05700000000003Q125.33100000000003 99.67699999999999 124.87725000000003 100.11425Q124.42350000000002 100.5515 124.42350000000002 101.2775Q124.42350000000002 102.0365 124.92675000000003 102.47375Q125.43000000000002 102.911 126.32100000000003 102.911Z M145.84050000000002 96.905 145.70850000000002 91.955H147.39150000000004L147.276 96.905Z M152.91900000000004 104.0V102.6305L156.92850000000004 98.3405Q157.80300000000003 97.4165 158.16600000000003 96.6905Q158.52900000000002 95.9645 158.52900000000002 95.2715Q158.52900000000002 94.2815 157.95975000000004 93.69575Q157.39050000000003 93.11 156.41700000000003 93.11Q155.41050000000004 93.11 154.82475000000005 93.71225Q154.23900000000003 94.3145 154.23900000000003 95.3375H152.75400000000002Q152.80350000000004 93.704 153.79350000000005 92.74699999999999Q154.78350000000003 91.78999999999999 156.41700000000003 91.78999999999999Q158.08350000000002 91.78999999999999 159.06525000000002 92.73049999999999Q160.04700000000003 93.67099999999999 160.04700000000003 95.288Q160.04700000000003 96.146 159.57675000000003 97.10300000000001Q159.10650000000004 98.06 157.96800000000002 99.248L154.71750000000003 102.647H160.19550000000004V104.0Z M166.35000000000002 104.165Q165.21150000000003 104.165 164.33700000000005 103.71950000000001Q163.46250000000003 103.274 162.97575000000003 102.47375Q162.48900000000003 101.6735 162.48900000000003 100.634Q162.48900000000003 99.49549999999999 163.14075000000003 98.6705Q163.79250000000005 97.8455 164.88150000000005 97.664V97.61449999999999Q163.94100000000003 97.4 163.38000000000005 96.66575Q162.81900000000005 95.9315 162.81900000000005 94.9745Q162.81900000000005 94.03399999999999 163.26450000000006 93.31625Q163.71000000000004 92.5985 164.51025000000004 92.19425Q165.31050000000005 91.78999999999999 166.35000000000002 91.78999999999999Q167.40600000000003 91.78999999999999 168.19800000000004 92.19425Q168.99000000000004 92.5985 169.43550000000005 93.31625Q169.88100000000003 94.03399999999999 169.88100000000003 94.9745Q169.88100000000003 95.9315 169.32000000000005 96.66575Q168.75900000000004 97.4 167.81850000000003 97.61449999999999V97.664Q168.90750000000003 97.8455 169.55925000000002 98.6705Q170.21100000000004 99.49549999999999 170.21100000000004 100.634Q170.21100000000004 101.6735 169.72425000000004 102.47375Q169.23750000000004 103.274 168.37125000000003 103.71950000000001Q167.50500000000002 104.165 166.35000000000002 104.165ZM166.35000000000002 97.037Q167.27400000000003 97.037 167.83500000000004 96.4925Q168.39600000000004 95.94800000000001 168.39600000000004 95.0735Q168.39600000000004 94.199 167.83500000000004 93.6545Q167.27400000000003 93.11 166.35000000000002 93.11Q165.44250000000002 93.11 164.87325000000004 93.6545Q164.30400000000003 94.199 164.30400000000003 95.0735Q164.30400000000003 95.94800000000001 164.87325000000004 96.4925Q165.44250000000002 97.037 166.35000000000002 97.037ZM166.35000000000002 102.8285Q167.40600000000003 102.8285 168.06600000000003 102.20975Q168.72600000000003 101.591 168.72600000000003 100.601Q168.72600000000003 99.5945 168.06600000000003 98.97575Q167.40600000000003 98.357 166.35000000000002 98.357Q165.29400000000004 98.357 164.63400000000004 98.97575Q163.97400000000005 99.5945 163.97400000000005 100.601Q163.97400000000005 101.591 164.63400000000004 102.20975Q165.29400000000004 102.8285 166.35000000000002 102.8285Z M196.05000000000004 99.71000000000001Q195.43950000000004 99.71000000000001 195.06825000000003 99.34700000000001Q194.69700000000006 98.984 194.69700000000006 98.40650000000001Q194.69700000000006 97.796 195.06825000000003 97.41650000000001Q195.43950000000004 97.037 196.05000000000004 97.037Q196.66050000000004 97.037 197.03175000000005 97.41650000000001Q197.40300000000005 97.796 197.40300000000005 98.40650000000001Q197.40300000000005 98.984 197.03175000000005 99.34700000000001Q196.66050000000004 99.71000000000001 196.05000000000004 99.71000000000001Z M221.62500000000006 104.0 224.76000000000008 91.955H226.75650000000007L229.87500000000006 104.0H228.37350000000006L227.58150000000006 100.799H223.93500000000006L223.14300000000006 104.0ZM224.23200000000006 99.545H227.26800000000006L226.34400000000008 95.8325Q226.08000000000007 94.7765 225.93150000000009 94.06700000000001Q225.78300000000007 93.3575 225.75000000000006 93.143Q225.71700000000007 93.3575 225.56850000000009 94.06700000000001Q225.42000000000007 94.7765 225.15600000000006 95.816Z M232.43250000000006 104.0V102.647H234.89100000000008V93.30799999999999H232.43250000000006V91.955H238.86750000000006V93.30799999999999H236.40900000000008V102.647H238.86750000000006V104.0Z M241.8375000000001 105.815 247.69500000000008 90.305H249.26250000000007L243.4050000000001 105.815Z M251.68800000000007 104.0V91.955H253.88250000000008L255.4170000000001 97.169L257.0175000000001 91.955H259.2120000000001V104.0H257.7765000000001V98.3075Q257.7765000000001 97.499 257.8012500000001 96.45124999999999Q257.8260000000001 95.4035 257.8755000000001 94.33099999999999Q257.92500000000007 93.2585 257.9910000000001 92.4005L256.0440000000001 98.621H254.7570000000001L252.8925000000001 92.549Q253.02450000000007 93.77 253.07400000000007 95.22200000000001Q253.1235000000001 96.674 253.1235000000001 98.3075V104.0Z M262.5450000000001 104.0V91.955H264.0300000000001V102.647H269.4750000000001V104.0Z M283.74750000000006 104.0V97.5155H281.1075000000001V96.1625H283.74750000000006V94.265Q283.74750000000006 93.1925 284.4240000000001 92.57374999999999Q285.10050000000007 91.955 286.28850000000006 91.955H288.94500000000005V93.30799999999999H286.28850000000006Q285.2325000000001 93.30799999999999 285.2325000000001 94.265V96.1625H288.94500000000005V97.5155H285.2325000000001V104.0Z M295.05 104.132Q293.41650000000004 104.132 292.4512500000001 103.17500000000001Q291.48600000000005 102.218 291.48600000000005 100.502V98.423Q291.48600000000005 96.6905 292.44300000000004 95.74175Q293.40000000000003 94.793 295.05 94.793Q296.70000000000005 94.793 297.65700000000004 95.74175Q298.61400000000003 96.6905 298.61400000000003 98.423V100.502Q298.61400000000003 102.218 297.64875000000006 103.17500000000001Q296.68350000000004 104.132 295.05 104.132ZM295.05 102.812Q296.0235 102.812 296.57625 102.2675Q297.129 101.723 297.129 100.667V98.258Q297.129 97.202 296.57625 96.6575Q296.0235 96.113 295.05 96.113Q294.093 96.113 293.53200000000004 96.6575Q292.971 97.202 292.971 98.258V100.667Q292.971 101.723 293.53200000000004 102.2675Q294.093 102.812 295.05 102.812Z M304.9335 104.165Q303.366 104.165 302.4255 103.23275000000001Q301.485 102.3005 301.485 100.7V94.925H302.97V100.7Q302.97 101.69 303.49800000000005 102.27575Q304.026 102.8615 304.9335 102.8615Q305.8575 102.8615 306.39375 102.27575Q306.93 101.69 306.93 100.7V94.925H308.415V100.7Q308.415 102.3005 307.45799999999997 103.23275000000001Q306.501 104.165 304.9335 104.165Z M311.41799999999995 104.0V94.925H312.90299999999996V96.6575H312.91949999999997Q313.03499999999997 95.75 313.662 95.255Q314.289 94.76 315.32849999999996 94.76Q316.698 94.76 317.50649999999996 95.6015Q318.315 96.443 318.315 97.895V104.0H316.83V98.159Q316.83 97.1195 316.31025 96.56675Q315.79049999999995 96.014 314.8995 96.014Q313.97549999999995 96.014 313.43924999999996 96.5915Q312.90299999999996 97.169 312.90299999999996 98.225V104.0Z M324.222 104.165Q322.86899999999997 104.165 322.05224999999996 103.2575Q321.23549999999994 102.35 321.23549999999994 100.799V98.1425Q321.23549999999994 96.575 322.044 95.6675Q322.85249999999996 94.76 324.222 94.76Q325.24499999999995 94.76 325.91324999999995 95.2715Q326.58149999999995 95.783 326.71349999999995 96.6575H326.72999999999996L326.69699999999995 94.595V91.955H328.18199999999996V104.0H326.69699999999995V102.2675H326.68049999999994Q326.56499999999994 103.1585 325.905 103.66175000000001Q325.24499999999995 104.165 324.222 104.165ZM324.7169999999999 102.878Q325.64099999999996 102.878 326.169 102.3005Q326.69699999999995 101.723 326.69699999999995 100.7V98.225Q326.69699999999995 97.202 326.169 96.6245Q325.64099999999996 96.047 324.7169999999999 96.047Q323.77649999999994 96.047 323.2484999999999 96.53375Q322.72049999999996 97.0205 322.72049999999996 98.1425V100.7825Q322.72049999999996 101.888 323.2484999999999 102.38300000000001Q323.77649999999994 102.878 324.7169999999999 102.878Z M334.6499999999999 104.165Q333.0494999999999 104.165 332.06774999999993 103.19975Q331.08599999999996 102.2345 331.08599999999996 100.535V98.39Q331.08599999999996 96.6905 332.06774999999993 95.72525Q333.0494999999999 94.76 334.6499999999999 94.76Q335.7224999999999 94.76 336.5227499999999 95.189Q337.3229999999999 95.618 337.7684999999999 96.39349999999999Q338.21399999999994 97.169 338.21399999999994 98.225V99.842H332.53799999999995V100.7Q332.53799999999995 101.7065 333.11549999999994 102.29225Q333.6929999999999 102.878 334.6499999999999 102.878Q335.4749999999999 102.878 336.0112499999999 102.55625Q336.54749999999996 102.2345 336.66299999999995 101.69H338.1479999999999Q337.99949999999995 102.8285 337.0424999999999 103.49675Q336.0854999999999 104.165 334.6499999999999 104.165ZM332.53799999999995 98.687H336.76199999999994V98.225Q336.76199999999994 97.1525 336.20924999999994 96.56675Q335.65649999999994 95.981 334.6499999999999 95.981Q333.6434999999999 95.981 333.09074999999996 96.56675Q332.53799999999995 97.1525 332.53799999999995 98.225Z M341.4479999999999 104.0V94.925H342.93299999999994V96.6575H342.9659999999999Q343.0814999999999 95.783 343.7084999999999 95.2715Q344.3354999999999 94.76 345.3914999999999 94.76Q346.81049999999993 94.76 347.5777499999999 95.60975Q348.3449999999999 96.4595 348.3449999999999 98.027V98.8025H346.8599999999999V98.027Q346.8599999999999 96.047 344.9294999999999 96.047Q343.9559999999999 96.047 343.44449999999995 96.608Q342.93299999999994 97.169 342.93299999999994 98.225V104.0Z M374.24999999999983 99.71000000000001Q373.6394999999998 99.71000000000001 373.26824999999985 99.34700000000001Q372.8969999999998 98.984 372.8969999999998 98.40650000000001Q372.8969999999998 97.796 373.26824999999985 97.41650000000001Q373.6394999999998 97.037 374.24999999999983 97.037Q374.86049999999983 97.037 375.2317499999998 97.41650000000001Q375.60299999999984 97.796 375.60299999999984 98.40650000000001Q375.60299999999984 98.984 375.2317499999998 99.34700000000001Q374.86049999999983 99.71000000000001 374.24999999999983 99.71000000000001Z M400.8479999999998 104.0V94.925H402.3329999999998V96.6575H402.36599999999976Q402.48149999999976 95.783 403.10849999999976 95.2715Q403.7354999999998 94.76 404.79149999999976 94.76Q406.2104999999998 94.76 406.9777499999998 95.60975Q407.7449999999998 96.4595 407.7449999999998 98.027V98.8025H406.25999999999976V98.027Q406.25999999999976 96.047 404.32949999999977 96.047Q403.35599999999977 96.047 402.8444999999998 96.608Q402.3329999999998 97.169 402.3329999999998 98.225V104.0Z M413.84999999999974 104.165Q412.2494999999997 104.165 411.26774999999975 103.19975Q410.2859999999998 102.2345 410.2859999999998 100.535V98.39Q410.2859999999998 96.6905 411.26774999999975 95.72525Q412.2494999999997 94.76 413.84999999999974 94.76Q414.92249999999973 94.76 415.72274999999973 95.189Q416.52299999999974 95.618 416.9684999999997 96.39349999999999Q417.41399999999976 97.169 417.41399999999976 98.225V99.842H411.7379999999998V100.7Q411.7379999999998 101.7065 412.31549999999976 102.29225Q412.89299999999974 102.878 413.84999999999974 102.878Q414.6749999999997 102.878 415.2112499999997 102.55625Q415.7474999999998 102.2345 415.8629999999998 101.69H417.34799999999973Q417.1994999999998 102.8285 416.2424999999997 103.49675Q415.28549999999973 104.165 413.84999999999974 104.165ZM411.7379999999998 98.687H415.96199999999976V98.225Q415.96199999999976 97.1525 415.40924999999976 96.56675Q414.85649999999976 95.981 413.84999999999974 95.981Q412.8434999999997 95.981 412.2907499999998 96.56675Q411.7379999999998 97.1525 411.7379999999998 98.225Z M423.3869999999997 104.132Q421.86899999999974 104.132 421.0357499999997 103.44725Q420.2024999999997 102.7625 420.2024999999997 101.5085H421.6874999999997Q421.6874999999997 102.1355 422.1329999999997 102.49025Q422.57849999999974 102.845 423.3869999999997 102.845H424.1129999999997Q424.9379999999997 102.845 425.3917499999997 102.482Q425.84549999999973 102.119 425.84549999999973 101.459Q425.84549999999973 100.2875 424.77299999999974 100.139L422.2649999999997 99.776Q421.3409999999997 99.644 420.8294999999997 99.00875Q420.3179999999997 98.3735 420.3179999999997 97.334Q420.3179999999997 96.146 421.1347499999997 95.46950000000001Q421.9514999999997 94.793 423.3869999999997 94.793H424.1129999999997Q425.4329999999997 94.793 426.26624999999973 95.44475Q427.09949999999975 96.0965 427.1654999999997 97.1525H425.6639999999997Q425.63099999999974 96.674 425.21024999999975 96.3605Q424.78949999999975 96.047 424.1129999999997 96.047H423.3869999999997Q422.6279999999997 96.047 422.1989999999997 96.39349999999999Q421.76999999999975 96.74 421.76999999999975 97.334Q421.76999999999975 98.291 422.6444999999997 98.423L424.9874999999997 98.753Q427.29749999999973 99.083 427.29749999999973 101.459Q427.29749999999973 102.7295 426.46424999999977 103.43075Q425.63099999999974 104.132 424.1129999999997 104.132Z M433.6499999999997 104.165Q432.0494999999997 104.165 431.0677499999997 103.19975Q430.08599999999973 102.2345 430.08599999999973 100.535V98.39Q430.08599999999973 96.6905 431.0677499999997 95.72525Q432.0494999999997 94.76 433.6499999999997 94.76Q434.7224999999997 94.76 435.5227499999997 95.189Q436.3229999999997 95.618 436.7684999999997 96.39349999999999Q437.2139999999997 97.169 437.2139999999997 98.225V99.842H431.5379999999997V100.7Q431.5379999999997 101.7065 432.1154999999997 102.29225Q432.6929999999997 102.878 433.6499999999997 102.878Q434.4749999999997 102.878 435.0112499999997 102.55625Q435.54749999999973 102.2345 435.6629999999997 101.69H437.1479999999997Q436.9994999999997 102.8285 436.0424999999997 103.49675Q435.0854999999997 104.165 433.6499999999997 104.165ZM431.5379999999997 98.687H435.7619999999997V98.225Q435.7619999999997 97.1525 435.2092499999997 96.56675Q434.6564999999997 95.981 433.6499999999997 95.981Q432.6434999999997 95.981 432.09074999999973 96.56675Q431.5379999999997 97.1525 431.5379999999997 98.225Z M442.7579999999997 104.165Q441.35549999999967 104.165 440.5304999999997 103.38125Q439.7054999999997 102.5975 439.7054999999997 101.327Q439.7054999999997 100.4855 440.0849999999997 99.85849999999999Q440.4644999999997 99.2315 441.1409999999997 98.87675Q441.81749999999965 98.522 442.69199999999967 98.522H445.4969999999997V97.8125Q445.4969999999997 96.047 443.5664999999997 96.047Q442.7084999999997 96.047 442.1804999999997 96.3605Q441.6524999999997 96.674 441.6194999999997 97.235H440.13449999999966Q440.2169999999997 96.1625 441.1327499999997 95.46125Q442.0484999999997 94.76 443.5664999999997 94.76Q445.21649999999966 94.76 446.09924999999964 95.55199999999999Q446.9819999999997 96.344 446.9819999999997 97.763V104.0H445.5134999999997V102.35H445.48049999999967Q445.34849999999966 103.1915 444.63899999999967 103.67825Q443.9294999999997 104.165 442.7579999999997 104.165ZM443.1209999999997 102.911Q444.2099999999997 102.911 444.8534999999997 102.38300000000001Q445.4969999999997 101.855 445.4969999999997 100.9475V99.67699999999999H442.8569999999997Q442.1309999999997 99.67699999999999 441.6772499999997 100.11425Q441.22349999999966 100.5515 441.22349999999966 101.2775Q441.22349999999966 102.0365 441.7267499999997 102.47375Q442.2299999999997 102.911 443.1209999999997 102.911Z M450.3479999999997 104.0V94.925H451.8329999999997V96.6575H451.86599999999964Q451.98149999999964 95.783 452.60849999999965 95.2715Q453.23549999999966 94.76 454.29149999999964 94.76Q455.7104999999997 94.76 456.4777499999997 95.60975Q457.24499999999966 96.4595 457.24499999999966 98.027V98.8025H455.75999999999965V98.027Q455.75999999999965 96.047 453.82949999999965 96.047Q452.85599999999965 96.047 452.3444999999997 96.608Q451.8329999999997 97.169 451.8329999999997 98.225V104.0Z M463.48199999999963 104.165Q461.83199999999965 104.165 460.84199999999964 103.241Q459.85199999999963 102.317 459.85199999999963 100.7V98.225Q459.85199999999963 96.608 460.84199999999964 95.684Q461.83199999999965 94.76 463.48199999999963 94.76Q465.0494999999996 94.76 466.0147499999996 95.6015Q466.9799999999996 96.443 467.02949999999964 97.895H465.54449999999963Q465.49499999999966 97.0205 464.95049999999964 96.55025Q464.4059999999996 96.08 463.48199999999963 96.08Q462.50849999999963 96.08 461.9227499999996 96.63275Q461.33699999999965 97.1855 461.33699999999965 98.2085V100.7Q461.33699999999965 101.723 461.9227499999996 102.28399999999999Q462.50849999999963 102.845 463.48199999999963 102.845Q464.4059999999996 102.845 464.95049999999964 102.3665Q465.49499999999966 101.888 465.54449999999963 101.03H467.02949999999964Q466.9799999999996 102.482 466.0147499999996 103.3235Q465.0494999999996 104.165 463.48199999999963 104.165Z M469.8179999999996 104.0V91.955H471.3029999999996V96.6575H471.3194999999996Q471.4349999999996 95.75 472.0619999999996 95.255Q472.6889999999996 94.76 473.7284999999996 94.76Q475.0979999999996 94.76 475.9064999999996 95.6015Q476.71499999999963 96.443 476.71499999999963 97.895V104.0H475.2299999999996V98.1425Q475.2299999999996 97.1195 474.71024999999963 96.56675Q474.1904999999996 96.014 473.2994999999996 96.014Q472.3754999999996 96.014 471.8392499999996 96.5915Q471.3029999999996 97.169 471.3029999999996 98.225V104.0Z M483.1499999999996 104.165Q481.54949999999957 104.165 480.5677499999996 103.19975Q479.5859999999996 102.2345 479.5859999999996 100.535V98.39Q479.5859999999996 96.6905 480.5677499999996 95.72525Q481.54949999999957 94.76 483.1499999999996 94.76Q484.22249999999957 94.76 485.0227499999996 95.189Q485.8229999999996 95.618 486.26849999999956 96.39349999999999Q486.7139999999996 97.169 486.7139999999996 98.225V99.842H481.0379999999996V100.7Q481.0379999999996 101.7065 481.6154999999996 102.29225Q482.1929999999996 102.878 483.1499999999996 102.878Q483.97499999999957 102.878 484.51124999999956 102.55625Q485.0474999999996 102.2345 485.1629999999996 101.69H486.64799999999957Q486.4994999999996 102.8285 485.54249999999956 103.49675Q484.58549999999957 104.165 483.1499999999996 104.165ZM481.0379999999996 98.687H485.2619999999996V98.225Q485.2619999999996 97.1525 484.7092499999996 96.56675Q484.1564999999996 95.981 483.1499999999996 95.981Q482.14349999999956 95.981 481.5907499999996 96.56675Q481.0379999999996 97.1525 481.0379999999996 98.225Z M489.9479999999996 104.0V94.925H491.4329999999996V96.6575H491.46599999999955Q491.58149999999955 95.783 492.20849999999956 95.2715Q492.83549999999957 94.76 493.89149999999955 94.76Q495.3104999999996 94.76 496.0777499999996 95.60975Q496.8449999999996 96.4595 496.8449999999996 98.027V98.8025H495.35999999999956V98.027Q495.35999999999956 96.047 493.42949999999956 96.047Q492.45599999999956 96.047 491.9444999999996 96.608Q491.4329999999996 97.169 491.4329999999996 98.225V104.0Z" fill="#57606a"/>
</svg>
